<?xml version="1.0" encoding="UTF-8"?>
<svg xmlns="http://www.w3.org/2000/svg" xmlns:xlink="http://www.w3.org/1999/xlink" width="24px" height="24px" viewBox="0 0 24 24" version="1.1">
<g id="surface1">
<path style=" stroke:none;fill-rule:nonzero;fill:rgb(84.705882%,84.705882%,85.490196%);fill-opacity:1;" d="M 17.714844 6 L 16.570312 1.429688 L 7.429688 1.429688 L 6.285156 6 "/>
<path style=" stroke:none;fill-rule:nonzero;fill:rgb(77.254902%,77.254902%,79.215686%);fill-opacity:1;" d="M 7.429688 1.429688 L 6.285156 6 L 9.144531 6 L 9.144531 1.429688 Z M 7.429688 1.429688 "/>
<path style=" stroke:none;fill-rule:nonzero;fill:rgb(92.941176%,92.941176%,92.941176%);fill-opacity:1;" d="M 16.570312 1.429688 L 17.714844 6 L 14.855469 6 L 14.855469 1.429688 Z M 16.570312 1.429688 "/>
<path style=" stroke:none;fill-rule:nonzero;fill:rgb(92.941176%,92.941176%,92.941176%);fill-opacity:1;" d="M 24 20.285156 C 24 21.546875 22.976562 22.570312 21.714844 22.570312 L 2.285156 22.570312 C 1.023438 22.570312 0 21.546875 0 20.285156 L 0 7.714844 C 0 6.453125 1.023438 5.429688 2.285156 5.429688 L 21.714844 5.429688 C 22.976562 5.429688 24 6.453125 24 7.714844 Z M 24 20.285156 "/>
<path style=" stroke:none;fill-rule:nonzero;fill:rgb(84.705882%,84.705882%,85.490196%);fill-opacity:1;" d="M 2.285156 5.429688 C 1.023438 5.429688 0 6.453125 0 7.714844 L 0 20.285156 C 0 21.546875 1.023438 22.570312 2.285156 22.570312 Z M 2.285156 5.429688 "/>
<path style=" stroke:none;fill-rule:nonzero;fill:rgb(97.254902%,97.254902%,97.647059%);fill-opacity:1;" d="M 21.714844 22.570312 C 22.976562 22.570312 24 21.546875 24 20.285156 L 24 7.714844 C 24 6.453125 22.976562 5.429688 21.714844 5.429688 Z M 21.714844 22.570312 "/>
<path style=" stroke:none;fill-rule:nonzero;fill:rgb(34.509804%,34.117647%,36.470588%);fill-opacity:1;" d="M 0 10 L 24 10 L 24 18 L 0 18 Z M 0 10 "/>
<path style=" stroke:none;fill-rule:nonzero;fill:rgb(59.607843%,78.431373%,92.941176%);fill-opacity:1;" d="M 16.570312 14 C 16.570312 16.523438 14.523438 18.570312 12 18.570312 C 9.476562 18.570312 7.429688 16.523438 7.429688 14 C 7.429688 11.476562 9.476562 9.429688 12 9.429688 C 14.523438 9.429688 16.570312 11.476562 16.570312 14 Z M 16.570312 14 "/>
<path style=" stroke:none;fill-rule:nonzero;fill:rgb(95.294118%,95.294118%,94.901961%);fill-opacity:1;" d="M 19.429688 13.714844 L 21.714844 13.714844 L 21.714844 15.429688 L 19.429688 15.429688 Z M 19.429688 13.714844 "/>
<path style=" stroke:none;fill-rule:nonzero;fill:rgb(81.960784%,89.019608%,98.039216%);fill-opacity:1;" d="M 13.191406 9.585938 L 7.585938 15.191406 C 8.007812 16.761719 9.25 18 10.824219 18.417969 L 16.417969 12.824219 C 16 11.25 14.761719 10.007812 13.191406 9.585938 Z M 13.191406 9.585938 "/>
<path style=" stroke:none;fill-rule:nonzero;fill:rgb(24.705882%,23.921569%,26.27451%);fill-opacity:1;" d="M 0 10 L 2.285156 10 L 2.285156 18 L 0 18 Z M 0 10 "/>
<path style=" stroke:none;fill-rule:nonzero;fill:rgb(47.058824%,46.27451%,50.588235%);fill-opacity:1;" d="M 21.714844 10 L 24 10 L 24 18 L 21.714844 18 Z M 21.714844 10 "/>
<path style=" stroke:none;fill-rule:nonzero;fill:rgb(100%,100%,100%);fill-opacity:1;" d="M 15.058594 12.753906 C 15.058594 13.699219 14.289062 14.464844 13.34375 14.464844 C 12.394531 14.464844 11.628906 13.699219 11.628906 12.753906 C 11.628906 11.804688 12.394531 11.039062 13.34375 11.039062 C 14.289062 11.039062 15.058594 11.804688 15.058594 12.753906 Z M 15.058594 12.753906 "/>
</g>
</svg>
