<?xml version="1.0" encoding="UTF-8"?>
<svg xmlns="http://www.w3.org/2000/svg" xmlns:xlink="http://www.w3.org/1999/xlink" width="24px" height="24px" viewBox="0 0 24 24" version="1.1">
<g id="surface1">
<path style=" stroke:none;fill-rule:nonzero;fill:rgb(0%,0%,0%);fill-opacity:1;" d="M 12.246094 15.554688 C 12.582031 15.554688 12.839844 15.4375 13.027344 15.195312 C 13.21875 14.941406 13.316406 14.609375 13.316406 14.207031 L 13.316406 13.207031 C 13.316406 12.808594 13.21875 12.480469 13.023438 12.230469 C 12.832031 11.988281 12.578125 11.867188 12.242188 11.867188 C 11.90625 11.867188 11.65625 11.988281 11.472656 12.226562 C 11.285156 12.476562 11.1875 12.808594 11.1875 13.207031 L 11.1875 14.207031 C 11.1875 14.609375 11.285156 14.945312 11.476562 15.195312 C 11.660156 15.4375 11.914062 15.554688 12.246094 15.554688 Z M 12.246094 15.554688 "/>
<path style=" stroke:none;fill-rule:nonzero;fill:rgb(0%,0%,0%);fill-opacity:1;" d="M 20.757812 11.433594 C 20.929688 10.886719 21.015625 10.324219 21.015625 9.746094 C 21.015625 6.660156 18.503906 4.148438 15.417969 4.148438 C 13.546875 4.148438 11.785156 5.105469 10.753906 6.660156 C 9.960938 6.09375 9.003906 5.785156 8.023438 5.785156 C 5.433594 5.785156 3.324219 7.890625 3.324219 10.480469 C 3.324219 10.789062 3.355469 11.09375 3.414062 11.394531 C 1.449219 11.796875 0 13.546875 0 15.578125 C 0 17.933594 1.917969 19.851562 4.269531 19.851562 L 19.730469 19.851562 C 22.082031 19.851562 24 17.933594 24 15.578125 C 24 13.597656 22.652344 11.898438 20.757812 11.433594 Z M 9.105469 12.847656 L 9.0625 12.980469 L 7.769531 12.980469 L 7.769531 12.847656 C 7.769531 12.523438 7.691406 12.269531 7.539062 12.105469 C 7.394531 11.941406 7.152344 11.859375 6.824219 11.859375 C 6.535156 11.859375 6.3125 11.972656 6.144531 12.207031 C 5.96875 12.449219 5.878906 12.769531 5.878906 13.152344 L 5.878906 14.25 C 5.878906 14.640625 5.972656 14.960938 6.15625 15.203125 C 6.335938 15.441406 6.574219 15.554688 6.882812 15.554688 C 7.1875 15.554688 7.410156 15.476562 7.550781 15.320312 C 7.691406 15.160156 7.765625 14.914062 7.765625 14.582031 L 7.765625 14.453125 L 9.054688 14.453125 L 9.097656 14.582031 L 9.097656 14.601562 C 9.109375 15.230469 8.914062 15.734375 8.515625 16.109375 C 8.121094 16.476562 7.570312 16.664062 6.882812 16.664062 C 6.1875 16.664062 5.613281 16.4375 5.175781 15.988281 C 4.742188 15.539062 4.519531 14.957031 4.519531 14.253906 L 4.519531 13.164062 C 4.519531 12.464844 4.734375 11.882812 5.160156 11.433594 C 5.585938 10.980469 6.148438 10.75 6.824219 10.75 C 7.535156 10.75 8.101562 10.9375 8.503906 11.304688 C 8.914062 11.679688 9.117188 12.191406 9.105469 12.828125 Z M 14.679688 14.199219 C 14.679688 14.90625 14.449219 15.5 14 15.964844 C 13.550781 16.429688 12.960938 16.664062 12.246094 16.664062 C 11.535156 16.664062 10.949219 16.429688 10.5 15.964844 C 10.058594 15.5 9.832031 14.90625 9.832031 14.199219 L 9.832031 13.210938 C 9.832031 12.507812 10.054688 11.917969 10.5 11.453125 C 10.945312 10.984375 11.53125 10.75 12.242188 10.75 C 12.957031 10.75 13.546875 10.984375 14 11.449219 C 14.449219 11.914062 14.679688 12.507812 14.679688 13.210938 Z M 19.523438 16.585938 L 15.511719 16.585938 L 15.511719 15.683594 L 17.324219 13.738281 C 17.570312 13.457031 17.75 13.214844 17.851562 13.019531 C 17.949219 12.835938 18 12.667969 18 12.515625 C 18 12.316406 17.949219 12.15625 17.84375 12.03125 C 17.742188 11.914062 17.601562 11.859375 17.414062 11.859375 C 17.199219 11.859375 17.042969 11.925781 16.933594 12.066406 C 16.820312 12.214844 16.765625 12.417969 16.765625 12.675781 L 16.765625 12.804688 L 15.46875 12.804688 L 15.425781 12.675781 L 15.425781 12.65625 C 15.410156 12.125 15.589844 11.671875 15.953125 11.304688 C 16.3125 10.933594 16.804688 10.75 17.414062 10.75 C 18.007812 10.75 18.488281 10.910156 18.835938 11.222656 C 19.183594 11.542969 19.363281 11.972656 19.363281 12.5 C 19.363281 12.855469 19.261719 13.1875 19.066406 13.488281 C 18.882812 13.773438 18.574219 14.152344 18.148438 14.609375 L 17.355469 15.476562 L 19.523438 15.476562 Z M 19.523438 16.585938 "/>
</g>
</svg>
